Input #0, matroska,webm, from '/mnt/nas/media/TV Shows/Wild Cards/Season 1/Wild Cards - S01E10 - Romancing the Egg WEBDL-1080p.mkv':
  Metadata:
    encoder         : libebml v1.4.5 + libmatroska v1.7.1
    creation_time   : 2026-01-07T03:37:34.000000Z
  Duration: 00:42:15.55, start: 0.000000, bitrate: 6274 kb/s
  Chapters:
    Chapter #0:0: start 0.000000, end 96.000000
      Metadata:
        title           : Scene 1
    Chapter #0:1: start 96.000000, end 250.000000
      Metadata:
        title           : Scene 2
    Chapter #0:2: start 250.000000, end 285.000000
      Metadata:
        title           : Scene 3
    Chapter #0:3: start 285.000000, end 354.000000
      Metadata:
        title           : Scene 4
    Chapter #0:4: start 354.000000, end 462.000000
      Metadata:
        title           : Scene 5
    Chapter #0:5: start 462.000000, end 508.000000
      Metadata:
        title           : Scene 6
    Chapter #0:6: start 508.000000, end 667.000000
      Metadata:
        title           : Scene 7
    Chapter #0:7: start 667.000000, end 715.000000
      Metadata:
        title           : Scene 8
    Chapter #0:8: start 715.000000, end 786.000000
      Metadata:
        title           : Scene 9
    Chapter #0:9: start 786.000000, end 827.000000
      Metadata:
        title           : Scene 10
    Chapter #0:10: start 827.000000, end 892.000000
      Metadata:
        title           : Scene 11
    Chapter #0:11: start 892.000000, end 932.000000
      Metadata:
        title           : Scene 12
    Chapter #0:12: start 932.000000, end 976.000000
      Metadata:
        title           : Scene 13
    Chapter #0:13: start 976.000000, end 1028.000000
      Metadata:
        title           : Scene 14
    Chapter #0:14: start 1028.000000, end 1059.000000
      Metadata:
        title           : Scene 15
    Chapter #0:15: start 1059.000000, end 1186.000000
      Metadata:
        title           : Scene 16
    Chapter #0:16: start 1186.000000, end 1220.000000
      Metadata:
        title           : Scene 17
    Chapter #0:17: start 1220.000000, end 1242.000000
      Metadata:
        title           : Scene 18
    Chapter #0:18: start 1242.000000, end 1299.000000
      Metadata:
        title           : Scene 19
    Chapter #0:19: start 1299.000000, end 1335.000000
      Metadata:
        title           : Scene 20
    Chapter #0:20: start 1335.000000, end 1370.000000
      Metadata:
        title           : Scene 21
    Chapter #0:21: start 1370.000000, end 1466.000000
      Metadata:
        title           : Scene 22
    Chapter #0:22: start 1466.000000, end 1513.000000
      Metadata:
        title           : Scene 23
    Chapter #0:23: start 1513.000000, end 1585.000000
      Metadata:
        title           : Scene 24
    Chapter #0:24: start 1585.000000, end 1622.000000
      Metadata:
        title           : Scene 25
    Chapter #0:25: start 1622.000000, end 1663.000000
      Metadata:
        title           : Scene 26
    Chapter #0:26: start 1663.000000, end 1694.000000
      Metadata:
        title           : Scene 27
    Chapter #0:27: start 1694.000000, end 1746.000000
      Metadata:
        title           : Scene 28
    Chapter #0:28: start 1746.000000, end 1792.000000
      Metadata:
        title           : Scene 29
    Chapter #0:29: start 1792.000000, end 1829.000000
      Metadata:
        title           : Scene 30
    Chapter #0:30: start 1829.000000, end 1866.000000
      Metadata:
        title           : Scene 31
    Chapter #0:31: start 1866.000000, end 1964.000000
      Metadata:
        title           : Scene 32
    Chapter #0:32: start 1964.000000, end 2002.000000
      Metadata:
        title           : Scene 33
    Chapter #0:33: start 2002.000000, end 2054.000000
      Metadata:
        title           : Scene 34
    Chapter #0:34: start 2054.000000, end 2132.000000
      Metadata:
        title           : Scene 35
    Chapter #0:35: start 2132.000000, end 2182.000000
      Metadata:
        title           : Scene 36
    Chapter #0:36: start 2182.000000, end 2217.000000
      Metadata:
        title           : Scene 37
    Chapter #0:37: start 2217.000000, end 2263.000000
      Metadata:
        title           : Scene 38
    Chapter #0:38: start 2263.000000, end 2383.000000
      Metadata:
        title           : Scene 39
    Chapter #0:39: start 2383.000000, end 2507.000000
      Metadata:
        title           : Scene 40
    Chapter #0:40: start 2507.000000, end 2535.552000
      Metadata:
        title           : Scene 41
  Stream #0:0: Video: h264 (High), yuv420p(tv, bt709, progressive), 1920x1080 [SAR 1:1 DAR 16:9], 23.98 fps, 23.98 tbr, 1k tbn (default)
      Metadata:
        BPS             : 5632717
        DURATION        : 00:42:15.533000000
        NUMBER_OF_FRAMES: 60792
        NUMBER_OF_BYTES : 1785242643
        _STATISTICS_WRITING_APP: mkvmerge v85.0 ('Shame For You') 64-bit
        _STATISTICS_WRITING_DATE_UTC: 2026-01-07 03:37:34
        _STATISTICS_TAGS: BPS DURATION NUMBER_OF_FRAMES NUMBER_OF_BYTES
  Stream #0:1(eng): Audio: eac3, 48000 Hz, 5.1(side), fltp, 640 kb/s (default)
      Metadata:
        BPS             : 640000
        DURATION        : 00:42:15.552000000
        NUMBER_OF_FRAMES: 79236
        NUMBER_OF_BYTES : 202844160
        _STATISTICS_WRITING_APP: mkvmerge v85.0 ('Shame For You') 64-bit
        _STATISTICS_WRITING_DATE_UTC: 2026-01-07 03:37:34
        _STATISTICS_TAGS: BPS DURATION NUMBER_OF_FRAMES NUMBER_OF_BYTES
  Stream #0:2(eng): Subtitle: subrip (srt)
      Metadata:
        title           : SDH
        BPS             : 95
        DURATION        : 00:41:42.630000000
        NUMBER_OF_FRAMES: 935
        NUMBER_OF_BYTES : 29744
        _STATISTICS_WRITING_APP: mkvmerge v85.0 ('Shame For You') 64-bit
        _STATISTICS_WRITING_DATE_UTC: 2026-01-07 03:37:34
        _STATISTICS_TAGS: BPS DURATION NUMBER_OF_FRAMES NUMBER_OF_BYTES
Stream mapping:
  Stream #0:0 -> #0:0 (h264 (native) -> wrapped_avframe (native))
Press [q] to stop, [?] for help
Output #0, null, to 'pipe:':
  Metadata:
    encoder         : Lavf61.7.100
  Chapters:
    Chapter #0:0: start 0.000000, end 0.000000
      Metadata:
        title           : Scene 40
    Chapter #0:1: start 0.000000, end 1.000000
      Metadata:
        title           : Scene 41
  Stream #0:0: Video: wrapped_avframe, yuv420p(tv, bt709, progressive), 1920x1080 [SAR 1:1 DAR 16:9], q=2-31, 200 kb/s, 23.98 fps, 23.98 tbn (default)
      Metadata:
        BPS             : 5632717
        DURATION        : 00:42:15.533000000
        NUMBER_OF_FRAMES: 60792
        NUMBER_OF_BYTES : 1785242643
        _STATISTICS_WRITING_APP: mkvmerge v85.0 ('Shame For You') 64-bit
        _STATISTICS_WRITING_DATE_UTC: 2026-01-07 03:37:34
        _STATISTICS_TAGS: BPS DURATION NUMBER_OF_FRAMES NUMBER_OF_BYTES
        encoder         : Lavc61.19.101 wrapped_avframe
[Parsed_blackframe_0 @ 0x75b6e3e0c0c0] frame:12 pblack:99 pts:505 t:0.505000 type:B last_keyframe:0
[Parsed_blackframe_0 @ 0x75b6e3e0c0c0] frame:13 pblack:99 pts:547 t:0.547000 type:B last_keyframe:0
[Parsed_blackframe_0 @ 0x75b6e3e0c0c0] frame:14 pblack:99 pts:588 t:0.588000 type:B last_keyframe:0
[Parsed_blackframe_0 @ 0x75b6e3e0c0c0] frame:15 pblack:99 pts:630 t:0.630000 type:P last_keyframe:0
[Parsed_blackframe_0 @ 0x75b6e3e0c0c0] frame:16 pblack:99 pts:672 t:0.672000 type:B last_keyframe:0
[Parsed_blackframe_0 @ 0x75b6e3e0c0c0] frame:17 pblack:99 pts:714 t:0.714000 type:B last_keyframe:0
[Parsed_blackframe_0 @ 0x75b6e3e0c0c0] frame:18 pblack:99 pts:755 t:0.755000 type:B last_keyframe:0
[Parsed_blackframe_0 @ 0x75b6e3e0c0c0] frame:19 pblack:99 pts:797 t:0.797000 type:P last_keyframe:0
[Parsed_blackframe_0 @ 0x75b6e3e0c0c0] frame:20 pblack:99 pts:839 t:0.839000 type:B last_keyframe:0
[Parsed_blackframe_0 @ 0x75b6e3e0c0c0] frame:21 pblack:99 pts:880 t:0.880000 type:B last_keyframe:0
[Parsed_blackframe_0 @ 0x75b6e3e0c0c0] frame:22 pblack:99 pts:922 t:0.922000 type:B last_keyframe:0
[Parsed_blackframe_0 @ 0x75b6e3e0c0c0] frame:23 pblack:99 pts:964 t:0.964000 type:P last_keyframe:0
[Parsed_blackframe_0 @ 0x75b6e3e0c0c0] frame:24 pblack:99 pts:1005 t:1.005000 type:B last_keyframe:0
[out#0/null @ 0x75b6e8e80440] video:10KiB audio:0KiB subtitle:0KiB other streams:0KiB global headers:0KiB muxing overhead: unknown
frame=   24 fps=0.0 q=-0.0 Lsize=N/A time=00:00:01.00 bitrate=N/A speed=3.96x    
